PathFileType	4	(X/Y/Z)	 s09c0402.trc
DataRate	CameraRate	NumFrames	NumMarkers	Units	OrigDataRate	OrigDataStartFrame	OrigNumFrames
200	200	4	50	mm	200	251	2000
Frame#	Time	racr			lacr			c7			jug			rlel			rdr			llel			ldr			s2			lic			ric			lasi			rasi			rpsi			lpsi			rgt			lgt			rth1			rth2			rth3			rth4			rlfc			rmfc			rsh1			rsh2			rsh3			rsh4			rlmal			rmmal			rcal			rtoe			rmt5			lth1			lth2			lth4			lth3			llfc			lmfc			llmal			lmmal			lcal			lmt5			lsh1			lsh2			lsh3			lsh4			ltoe			SBIKE			LBIKE			RBIKE			
		X1	Y1	Z1	X2	Y2	Z2	X3	Y3	Z3	X4	Y4	Z4	X5	Y5	Z5	X6	Y6	Z6	X7	Y7	Z7	X8	Y8	Z8	X9	Y9	Z9	X10	Y10	Z10	X11	Y11	Z11	X12	Y12	Z12	X13	Y13	Z13	X14	Y14	Z14	X15	Y15	Z15	X16	Y16	Z16	X17	Y17	Z17	X18	Y18	Z18	X19	Y19	Z19	X20	Y20	Z20	X21	Y21	Z21	X22	Y22	Z22	X23	Y23	Z23	X24	Y24	Z24	X25	Y25	Z25	X26	Y26	Z26	X27	Y27	Z27	X28	Y28	Z28	X29	Y29	Z29	X30	Y30	Z30	X31	Y31	Z31	X32	Y32	Z32	X33	Y33	Z33	X34	Y34	Z34	X35	Y35	Z35	X36	Y36	Z36	X37	Y37	Z37	X38	Y38	Z38	X39	Y39	Z39	X40	Y40	Z40	X41	Y41	Z41	X42	Y42	Z42	X43	Y43	Z43	X44	Y44	Z44	X45	Y45	Z45	X46	Y46	Z46	X47	Y47	Z47	X48	Y48	Z48	X49	Y49	Z49	X50	Y50	Z50	
251	1.2550	527.741233	1311.901107	-94.250789	532.995132	1283.998171	-408.375735	506.386818	1322.409943	-244.342243	493.238002	1186.964361	-244.939710	506.577807	1073.884942	24.421720	691.080585	911.349791	-31.900235	457.049905	1029.445913	-517.899810	671.720615	909.919730	-461.180219	26.269755	1131.684506	-232.084614	161.051786	1126.903275	-379.606655	179.233363	1119.065777	-91.322583	200.961520	1065.015109	-361.736222	219.066533	1061.592973	-112.262166	60.863953	1158.535494	-172.242579	53.420987	1169.005928	-282.360760	148.310992	974.891846	-51.056510	120.882434	1004.453020	-427.795123	237.716435	867.617983	-68.584587	306.539507	816.235053	-84.109164	335.898425	732.895813	-96.407184	328.724873	834.710655	-107.167104	366.881444	636.202300	-134.246520	335.638606	625.097248	-229.703451	278.272187	587.371679	-94.618071	221.552829	517.712304	-101.567857	139.870969	486.734532	-91.732048	235.611221	499.777131	-133.939823	58.118981	426.288292	-83.947201	57.343122	435.955841	-163.093367	-35.079945	419.262052	-118.135753	212.008380	326.284591	-127.434794	131.051522	336.827229	-60.041394	229.144348	917.282753	-423.669983	310.315423	891.735117	-415.528689	329.499531	920.454031	-399.575163	370.395977	824.302258	-410.631570	441.408559	747.816746	-389.917558	455.004838	733.991692	-291.613088	354.615233	391.678316	-409.439513	369.668983	402.274872	-334.420587	284.017694	350.231554	-374.557305	454.447779	313.247806	-433.977319	417.866716	650.657116	-415.856826	420.559100	563.718670	-409.282463	377.677014	485.828165	-411.675436	443.923267	559.783325	-377.660800	543.784481	333.890297	-363.734322	-65.043608	852.873632	-239.058901	20.661790	84.709533	-441.885393	21.065751	84.016185	-43.812384	
252	1.2600	527.789899	1311.861821	-94.225058	533.027297	1283.981982	-408.370764	506.437967	1322.401331	-244.255819	493.315937	1186.924843	-244.963501	506.593833	1073.866568	24.464345	691.075313	911.320628	-31.908077	457.073108	1029.453897	-517.906329	671.693931	909.909347	-461.175786	26.270487	1131.696765	-232.063454	161.089988	1126.939114	-379.592193	179.286068	1119.021536	-91.304014	200.997638	1065.006459	-361.698752	219.082900	1061.560194	-112.273035	60.891820	1158.517499	-172.227860	53.450062	1169.012542	-282.348563	148.334643	974.867668	-51.058271	120.914031	1004.472083	-427.780508	237.737601	867.627201	-68.585798	306.537852	816.247740	-84.085010	335.884358	732.882890	-96.383730	328.732090	834.709310	-107.180997	366.878156	636.192662	-134.256219	335.618223	625.088312	-229.719568	278.247879	587.365733	-94.613588	221.546979	517.702349	-101.570335	139.847625	486.742673	-91.735382	235.609587	499.754383	-133.945448	58.117005	426.273048	-83.932604	57.343129	435.955854	-163.093371	-35.090796	419.247979	-118.138564	212.021791	326.282421	-127.467827	131.034912	336.827960	-60.035941	229.148197	917.330524	-423.676194	310.333891	891.773901	-415.517508	329.512184	920.488938	-399.573002	370.430001	824.351541	-410.629088	441.451764	747.869690	-389.929952	455.018448	734.038062	-291.629558	354.667924	391.727494	-409.450844	369.713414	402.310254	-334.451614	284.063684	350.288446	-374.570986	454.457832	313.251310	-433.987686	417.915255	650.703181	-415.843117	420.606072	563.754585	-409.277844	377.722016	485.884181	-411.679557	443.981161	559.866101	-377.660070	543.806466	333.841634	-363.721319	-65.033028	852.872086	-239.046374	20.638873	84.623957	-441.974069	21.060380	84.036444	-43.826129	
253	1.2650	527.831084	1311.874290	-94.185253	533.063890	1283.960102	-408.365952	506.435686	1322.390119	-244.321204	493.369450	1186.888554	-244.932316	506.592556	1073.873327	24.500926	691.049826	911.332429	-31.908214	457.093996	1029.449280	-517.911442	671.696056	909.883128	-461.181068	26.268822	1131.743293	-232.048305	161.134516	1126.937929	-379.559338	179.332467	1118.994248	-91.286852	201.020351	1064.988833	-361.665980	219.101285	1061.527869	-112.266401	60.889840	1158.525622	-172.189317	53.477171	1169.040314	-282.319518	148.341824	974.861523	-51.043709	120.923766	1004.496970	-427.787186	237.729752	867.612354	-68.551529	306.529866	816.223331	-84.077407	335.887686	732.862555	-96.386258	328.746074	834.689068	-107.162223	366.875290	636.177261	-134.259113	335.598315	625.096639	-229.731395	278.246829	587.354506	-94.614846	221.528372	517.692667	-101.574186	139.847740	486.719990	-91.737487	235.593011	499.766909	-133.930133	58.114289	426.245837	-83.963618	57.323622	435.931783	-163.109403	-35.090030	419.234049	-118.137648	212.009398	326.289867	-127.444907	131.035623	336.828455	-60.031809	229.171508	917.354201	-423.675355	310.352916	891.811195	-415.514034	329.511605	920.547342	-399.576819	370.455449	824.398116	-410.613489	441.472481	747.901122	-389.941491	455.057602	734.095345	-291.638703	354.699144	391.789028	-409.481563	369.738849	402.339900	-334.480341	284.098652	350.351327	-374.576317	454.477052	313.262424	-434.001186	417.962864	650.746710	-415.851552	420.651241	563.803998	-409.265035	377.768687	485.926858	-411.685198	444.014895	559.919716	-377.680682	543.839284	333.818365	-363.735633	-65.038764	852.869283	-239.052509	20.661389	84.709754	-441.905511	21.051036	84.037352	-43.826992	
254	1.2700	527.865399	1311.837518	-94.144043	533.085351	1283.956715	-408.345511	506.427941	1322.404031	-244.359683	493.407232	1186.877758	-244.940054	506.643221	1073.851623	24.541758	691.071841	911.293596	-31.921183	457.100949	1029.465082	-517.913604	671.679456	909.856731	-461.144930	26.298856	1131.732708	-232.032871	161.164100	1126.945213	-379.555595	179.361145	1118.993582	-91.285700	201.049218	1064.958846	-361.616602	219.113557	1061.470886	-112.256518	60.946842	1158.510423	-172.180491	53.477592	1169.052423	-282.297911	148.326831	974.848916	-51.033142	120.950117	1004.517497	-427.780580	237.736131	867.603693	-68.550771	306.548244	816.202178	-84.075379	335.870856	732.844947	-96.375104	328.729735	834.688066	-107.139336	366.873852	636.154431	-134.261942	335.609435	625.074406	-229.715275	278.249099	587.345180	-94.605778	221.550841	517.694210	-101.575954	139.848590	486.708199	-91.742769	235.593332	499.751913	-133.941198	58.099926	426.245862	-83.948536	57.323629	435.931795	-163.109407	-35.092748	419.222805	-118.152404	212.018171	326.277635	-127.453175	131.037003	336.828465	-60.042039	229.186795	917.378016	-423.647024	310.370451	891.859275	-415.520796	329.525286	920.584745	-399.588644	370.478476	824.431654	-410.614068	441.505733	747.948485	-389.941672	455.098482	734.134431	-291.637662	354.729284	391.824531	-409.468587	369.765699	402.383016	-334.486806	284.126279	350.409304	-374.578861	454.485452	313.271438	-434.008313	418.002924	650.787234	-415.866376	420.671936	563.840136	-409.272935	377.804141	485.985848	-411.700332	444.056689	560.051140	-377.724990	543.868872	333.777680	-363.726085	-65.055082	852.869834	-239.046165	20.648915	84.708946	-441.895404	21.057104	84.014367	-43.814180	
